<?xml version="1.0" encoding="utf-8"?>
<!-- Generator: Adobe Illustrator 23.0.3, SVG Export Plug-In . SVG Version: 6.00 Build 0)  -->
<svg version="1.1" id="Layer_1" xmlns="http://www.w3.org/2000/svg" xmlns:xlink="http://www.w3.org/1999/xlink" x="0px" y="0px"
	 viewBox="0 0 103.4 79.9" style="enable-background:new 0 0 103.4 79.9;" xml:space="preserve">
<g>
	<path d="M49.8,1.2C48.5,4,48.4,6.9,49,9.8c0.1,0.7,0.4,1.3,0.6,2c0,0,0.1,0,0.1,0c0.1-0.8,0.2-1.5,0.3-2.3c0.3-1.6,0.6-3.2,1.3-4.7
		c0.4-1,1.1-1.9,1.9-2.6c0.6-0.5,1.2-0.9,1.9-0.9C57.3,1.1,59.4,1,61.5,1c1.8,0,3,1.3,3.4,2.7c0.4,1.6,0.3,3.1,0,4.7
		c-0.5,2.8-1.6,5.4-3.4,7.8c-0.1,0.2-0.3,0.4-0.4,0.6c0.4,0.2,0.7,0.4,1.1,0.6c3.8,1.9,7.1,4.4,10,7.5c3.9,4.2,6.8,9,9,14.3
		c1.5,3.8,2.6,7.7,3,11.7c0.4,3.9,0.2,7.7-0.9,11.4c-1.5,5.1-4.7,8.9-9.2,11.6c-3.3,2-7,3.2-10.8,4c-3.6,0.8-7.2,0.9-10.8,0.9
		c-1.9,0-3.9,0-5.8-0.1c-2.4-0.1-4.7-0.7-7.1-1.2c-3-0.7-5.8-1.8-8.4-3.3c-5.7-3.3-9.1-8.3-10.2-14.8c-0.7-3.9-0.5-7.8,0.3-11.7
		c1.7-8.4,5.3-15.9,11.1-22.3c3.1-3.5,6.8-6.4,11.1-8.3c0.1,0,0.2-0.1,0.3-0.1c0,0,0,0,0.1-0.1c-0.2-0.3-0.4-0.5-0.5-0.8
		c-1.4-2.1-2.5-4.4-3.1-6.9C39.8,7.5,39.6,5.8,40,4c0.3-1.5,1.2-2.6,2.8-2.9C43.2,1,43.7,1,44.2,1c1.8,0,3.5,0.1,5.3,0.1
		C49.6,1.2,49.7,1.2,49.8,1.2z M55.6,32.9c-0.8-0.2-0.8-0.1-0.9-1c0-0.9,0-1.8,0-2.7c0-0.6-0.1-0.7-0.8-0.8c-0.7,0-1.4,0-2.2,0
		c-0.4,0-0.6,0.2-0.6,0.6c0,1.2,0,2.3,0,3.5c0,0.3-0.1,0.4-0.4,0.5c-2.8,0.7-5.5,1.8-6.8,4.6c-0.6,1.3-0.7,2.7-0.7,4.2
		c0,1.2,0.2,2.5,0.9,3.6c1.3,2.3,4,3.3,6.3,4.3c1.2,0.6,2.5,1.1,3.7,1.8c1.2,0.6,1.7,1.7,1.6,3c-0.1,1.4-0.8,2.3-2.1,2.8
		c-1.3,0.5-2.6,0.6-3.9,0.6c-1.8,0-3.6-0.4-5.3-1c-0.7-0.2-0.7-0.2-0.9,0.5c-0.3,1.2-0.7,2.3-1,3.5c-0.2,0.6-0.1,0.7,0.5,0.9
		c1.6,0.6,3.2,1,4.9,1.2c1,0.1,2.1,0.2,3.2,0.3c0,0.1,0,0.3,0,0.4c0,1.2,0.1,2.4,0.1,3.6c0,0.3,0.1,0.4,0.3,0.4c1,0.2,1.9,0.1,2.9,0
		c0.3,0,0.3-0.2,0.3-0.4c0-1.2,0-2.4,0-3.6c0-0.9,0-0.9,0.9-1.2c5.4-1.4,8.2-7.1,6.1-12.3c-0.7-1.7-1.9-2.8-3.5-3.6
		c-2.1-1.1-4.3-2-6.5-3c-0.7-0.4-1.5-0.8-1.9-1.5c-0.4-0.7-0.5-1.5-0.3-2.3c0.2-0.8,0.8-1.4,1.5-1.8c0.6-0.3,1.2-0.4,1.9-0.4
		c2.1-0.1,4.4,0.1,6.4,1c0.5,0.2,0.6,0.2,0.8-0.3c0.4-1.2,0.7-2.5,1-3.7c0.1-0.3,0-0.5-0.3-0.6C58.8,33.2,55.6,32.9,55.6,32.9z"/>
</g>
</svg>
