<?xml version="1.0" encoding="utf-8"?>
<!-- Generator: Adobe Illustrator 23.0.3, SVG Export Plug-In . SVG Version: 6.00 Build 0)  -->
<svg version="1.1" id="Layer_1" xmlns="http://www.w3.org/2000/svg" xmlns:xlink="http://www.w3.org/1999/xlink" x="0px" y="0px"
	 viewBox="0 0 103.4 79.9" style="enable-background:new 0 0 103.4 79.9;" xml:space="preserve">
<g>
	<g>
		<g>
			<polygon points="35.7,57.6 37.5,68.1 50.5,68.1 50.5,58 50.6,58 50.6,68.1 54.1,68.1 54.1,58 54.3,58 54.3,68.1 59.8,68.1 
				54.3,68.8 54.3,79.2 63.7,79.2 66.2,68.1 67.4,68.1 69.1,57.6 			"/>
			<polygon points="50.6,79.2 54.1,79.2 54.1,68.8 50.6,69.2 			"/>
			<polygon points="39.1,70.7 40.1,79.2 50.5,79.2 50.5,69.3 			"/>
		</g>
		<path d="M67.8,8.8l-3-3.9l5.8-3.7C51,0.5,38.5,12,38.5,12c-25.6,25.1,0.6,45.6,0.6,45.6h4.2c0,0-8.4-5.5-11.1-18.2L30.9,43
			c0.1-0.5,0-1.5,0-2.1c0-1.8,0.2-3.7,0.5-5.5c0.7-4.9,2.5-10.2,5.9-13.8c4.1-4.3,9.2-7.6,14.8-9.9C56.7,9.8,62.8,8.1,67.8,8.8z"/>
		<path d="M60.1,44.7c-2.7-1.1-5.5,3.1-6.7,5.1c0.7-3.4,0.4-7.6-2.8-10c-2.8-2-6.4-2-9.1,0.2C36,44.7,41.4,53.4,45,57.6h3.9
			c0,0-9.2-9.9-4.7-13.2c1.5-1.1,3.8-0.7,4.9,0.7c1.4,1.7,2.5,5.2,2.2,12.4h2.3c0.1-1.1,0.5-2.1,0.7-3.2c0.4-1.2,1-3.3,2.5-3.9
			c0.4-0.1,0.9-0.1,1.2,0c1.1,0.5,1,1.7,0.6,2.6c-0.2,0.6-0.5,1.4-0.9,1.8c-0.2,0.4-0.5,0.9-0.7,1.2c-0.1,0.2-0.7,1.5-1,1.5h1
			c2.3-2.5,4.9-6,4.9-9.6C62.1,46.7,61.4,45.2,60.1,44.7z"/>
		<path d="M59.1,57.6c0,0,22.4-20.9,10.6-31.5l1,5.7c0,0-5.7-8.4-18.1,0l-0.2-3.7l-6,0.6c0,0,16.5-11.3,26.5-4.3
			c3.6,2.5,5.4,6.8,4.9,11.1c-0.5,5.1-3.4,13.1-14.8,22.2H59.1z"/>
	</g>
</g>
</svg>
