<?xml version="1.0" encoding="utf-8"?>
<!-- Generator: Adobe Illustrator 23.0.3, SVG Export Plug-In . SVG Version: 6.00 Build 0)  -->
<svg version="1.1" id="Layer_1" xmlns="http://www.w3.org/2000/svg" xmlns:xlink="http://www.w3.org/1999/xlink" x="0px" y="0px"
	 viewBox="0 0 100.8 103.8" style="enable-background:new 0 0 100.8 103.8;" xml:space="preserve">
<style type="text/css">
	.st0{fill:#010101;}
</style>
<path class="st0" d="M90.1,22.4c-2.9-6.2-7-10.8-14.2-12.3c-1.4-0.3-3.1-2.1-3.7-3.6c-1.9-4.4-3.3-5.3-7.9-4.1
	c-9.3,2.2-18.6,2.2-27.9,0c-4.8-1.2-6.1-0.3-8.1,4.5c-0.5,1.3-1.9,2.9-3.1,3.2c-8.4,1.5-12.8,7.4-15.6,14.7
	c-6.2,16-9.9,32.3-6.5,49.5c1.8,9.2,0.9,18.9,5.7,27.7c3.3-0.6,6.5-1.1,9.9-1.7c1.9-18.9-4.5-38.1,3.6-57.2c0.5,18.4,1,36,1.6,53.7
	c17.8,0,35.3,0,53,0c0.5-17.9,1-35.4,1.5-53c2.9,9.7,5.1,19.2,4.2,29.4c-0.8,9-2.2,18.1-0.3,27.2c3.4,0.5,6.6,1.1,9.6,1.5
	c1-2.1,2.3-3.7,2.6-5.4C96.2,83.7,99,70.9,99,58.1C98.9,45.9,95.4,33.7,90.1,22.4z M64.1,7.5c-3,1.4-5.6,2.3-7.9,3.7
	c-1.1,0.6-2.4,2.2-2.3,3.1c0.8,6.9,2,13.8,3,20.8c0.1,0.8,0.1,1.6-0.1,2.3c-0.1,0.3-1.3,0.5-1.4,0.4c-0.6-1-1.3-2.1-1.4-3.2
	c-0.6-6.3-1-12.7-1.5-19c-0.1-0.8-0.3-1.6-0.4-2.3c-2.7-1.1-3.6-0.1-3.8,2.4c-0.4,6.2-1,12.4-1.5,18.6c-0.1,0.7,0,1.5-0.3,2
	c-0.5,0.7-1.3,1.1-1.9,1.6c-0.2-0.8-0.8-1.7-0.7-2.4c1-6.5,2-13,3.1-19.5c0.5-2.7-0.3-4.4-3.1-5.2c-2.3-0.7-4.5-1.9-7.3-3.2
	C46,7.5,54.6,7.5,64.1,7.5z M62.7,73.8c-8,0-16.1,0-24.7,0c-1.4,4.9-1.3,11.2-8.7,12c6-2.6,6.5-7.9,7-13.6c9.2,0,18.4,0,27.9,0
	c1.1,5.1,0.5,11.3,7.7,13.2C66.6,86,65.2,84.1,62.7,73.8z"/>
</svg>
