<?xml version="1.0" encoding="utf-8"?>
<!-- Generator: Adobe Illustrator 23.0.3, SVG Export Plug-In . SVG Version: 6.00 Build 0)  -->
<svg version="1.1" id="Layer_1" xmlns="http://www.w3.org/2000/svg" xmlns:xlink="http://www.w3.org/1999/xlink" x="0px" y="0px"
	 viewBox="0 0 103.4 79.9" style="enable-background:new 0 0 103.4 79.9;" xml:space="preserve">
<path d="M91.5,24.3c-1-0.9-2.4-0.9-3.3,0.1c-0.3,0.3-0.5,0.6-0.7,0.9c-0.1,0-0.2-0.1-0.3-0.1c-0.6-0.9-1.1-1.9-1.7-2.8
	c-0.1-0.2-0.1-0.4-0.1-0.5c0.2-0.9-0.1-1.7-0.4-2.5c-1.1-2.4-2.6-4.6-4.4-6.5c-2.2-2.3-4.7-4.4-7.3-6.3C70,4.3,66.6,2.4,62.7,1.4
	c-2.9-0.7-5.7-0.8-8.5,0.3c-0.3,0.1-0.6,0.4-0.8,0.6c0.3,0.2,0.6,0.4,0.9,0.5c1.1,0.3,2.3,0.5,3.5,0.8c2.8,0.7,5.4,1.9,7.5,3.9
	c1.3,1.3,2.3,2.7,2.5,4.6c0.2,1.3,0,2.5-0.8,3.6c-0.5,0.7-1,1.5-0.8,2.5c0.1,0.5,0.3,0.9,0.5,1.4C61.4,24.9,56.2,30.3,51,35.7
	c-0.2-0.2-0.3-0.3-0.4-0.4c-2.5-2.4-5-4.7-7.5-7.1c-0.3-0.3-0.3-0.5-0.2-0.9c0.9-2.5,1.2-5,0.8-7.6c-1.1-7.2-5.3-11.9-12.2-14.1
	c-1.9-0.6-3.8-0.7-5.8-0.6c-0.6,0-1.1,0.2-1.4,0.7c-0.4,0.6-0.3,1.3,0.3,1.9c2.6,2.6,5.1,5.1,7.7,7.7c0.3,0.3,0.3,0.5,0.2,0.9
	c-0.6,2.4-1.2,4.8-1.8,7.3c-0.1,0.4-0.3,0.6-0.6,0.7c-2.5,0.7-5,1.3-7.5,2.1c-0.4,0.1-0.7,0-1-0.3c-2.5-2.6-5.1-5.1-7.6-7.6
	c-0.5-0.5-1.1-0.7-1.7-0.5c-0.7,0.3-0.9,0.8-1,1.5c-0.3,6,1.8,11,6.6,14.6c4.8,3.6,10.1,4.4,15.8,2.6c0.3-0.1,0.5-0.2,0.7,0.1
	c1.8,1.9,3.7,3.8,5.5,5.7c0.4,0.4,0.8,0.8,1.2,1.3c-0.7,0.6-1.3,1.2-2,1.8C31,52.6,22.8,59.8,14.7,67c-0.4,0.3-0.7,0.7-0.9,1.2
	c-1,2-0.7,4.2,0.9,5.8c1.1,1.1,2.2,2.2,3.3,3.3c1.1,1.1,2.4,1.6,3.9,1.7c1.3,0,2.5-0.3,3.5-1.3c6.9-7.7,13.7-15.4,20.6-23
	c0.9-1,1.8-2.1,2.8-3.1c0.1,0.1,0.2,0.2,0.3,0.3c1.3,1.4,2.6,2.7,3.9,4.1c6.1,6.3,12.2,12.6,18.3,19c1.1,1.2,2.2,2.4,3.7,3.1
	c2.7,1.3,5.3,1.4,7.8-0.3c2.2-1.6,3.4-3.7,3.1-6.5c-0.3-2.1-1.3-3.8-2.8-5.3c-2.2-2.1-4.5-4.3-6.7-6.4c-5.5-5.2-11-10.4-16.5-15.6
	c-1.1-1.1-2.2-2.1-3.4-3.2c5.2-5.4,10.3-10.7,15.5-16c0.4,0.3,0.8,0.5,1.2,0.7c1,0.5,2.1,0.7,3.2,0.2c0.5-0.2,1-0.3,1.4-0.1
	c0.5,0.2,1.1,0.4,1.6,0.7c1.3,0.8,2.6,1.7,3.8,2.6c0.1,0.1,0.2,0.2,0.4,0.3c-0.3,0.2-0.5,0.4-0.7,0.6c-0.9,0.9-0.9,2.4,0,3.3
	c0.9,0.9,2.4,1,3.3,0.1c1.9-1.9,3.8-3.7,5.7-5.6C92.5,26.6,92.4,25.1,91.5,24.3z M78.1,68.4c1.6,0,3,1.3,3,3c0,1.7-1.3,3-3.1,3
	c-1.6,0-3-1.3-3-3C75.1,69.7,76.4,68.4,78.1,68.4z"/>
</svg>
