<?xml version="1.0" encoding="utf-8"?>
<!-- Generator: Adobe Illustrator 23.0.3, SVG Export Plug-In . SVG Version: 6.00 Build 0)  -->
<svg version="1.1" id="Layer_1" xmlns="http://www.w3.org/2000/svg" xmlns:xlink="http://www.w3.org/1999/xlink" x="0px" y="0px"
	 viewBox="0 0 104.7 91.5" style="enable-background:new 0 0 104.7 91.5;" xml:space="preserve">
<g>
	<path d="M100.7,32.2c-1.7-5-4.8-8.8-9.7-11c-4.2-1.9-8.8-2.4-13.4-2.6c0,3.8,0,7.6,0,11.4c0.2,0,0.3,0,0.4,0
		c1.8,0.2,3.6,0.2,5.4,0.5c3,0.4,5.3,1.8,6.5,4.7c0.7,1.5,1,3.1,1,4.7c0,2.5,0,5,0,7.4c0,1-0.1,1.9-0.4,2.9
		c-0.7,2.9-2.3,5.2-5.4,6.1c-1.2,0.4-2.6,0.5-3.8,0.7c-1.2,0.2-2.5,0.2-3.7,0.3c0,3.8,0,7.5,0,11.4c0.9-0.1,1.7-0.1,2.5-0.2
		c2.5-0.2,5-0.5,7.4-1.2c6-1.6,10.4-5.2,12.8-11c1.5-3.6,2-7.4,2.1-11.3C102.5,40.7,102.1,36.4,100.7,32.2z"/>
	<path d="M73,17c-0.4-2.8-1.8-5.1-3.9-7c-2.5-2.2-5.5-3.6-8.6-4.6c-6.1-2-12.3-2.8-18.7-3.2c-5.2-0.3-10.3-0.1-15.4,0.6
		c-4.2,0.6-8.4,1.4-12.4,2.8C11,6.7,8.2,8.2,5.9,10.6c-2,2.1-3.3,4.5-3.4,7.4c-0.1,4-0.1,8-0.1,12c0,14.5,0.1,29,0.1,43.5
		c0,2.4,0.8,4.5,2.2,6.4c1.9,2.5,4.5,4.1,7.3,5.3c5.7,2.5,11.7,3.5,17.8,4.1c1.1,0.1,2.1,0.2,3.2,0.3c2.8,0,5.7,0,8.5,0
		c0.2,0,0.4-0.1,0.6-0.1c2.7-0.2,5.4-0.3,8-0.7c3.9-0.5,7.8-1.4,11.5-2.8c3.1-1.2,6-2.7,8.3-5.1c1.8-1.9,3-4.1,3.1-6.8
		c0.1-2.8,0.1-5.6,0.1-8.5c0-14.7,0-29.3,0-44C73.2,20,73.2,18.5,73,17z M60.4,16c-1.2,0.7-2.5,1.2-3.9,1.6c-3.3,1-6.7,1.6-10.1,1.7
		c-4.6,0.1-9.1,0.3-13.7,0.2c-5,0-10-0.7-14.9-2.3c-0.9-0.3-1.8-0.7-2.6-1.3c-1.5-1-1.5-2.1,0-3.1c1.5-1,3.2-1.5,4.9-1.9
		c3.9-1,7.9-1.5,12-1.6c2.1,0,4.3,0,6.4,0c0-0.1,0-0.1,0-0.2c3.7,0.2,7.4,0.3,11.1,0.6c3.2,0.3,6.3,1,9.3,2.2c0.5,0.2,1,0.5,1.5,0.8
		C61.9,13.9,61.9,15.2,60.4,16z"/>
</g>
</svg>
