<?xml version="1.0" encoding="utf-8"?>
<!-- Generator: Adobe Illustrator 23.0.3, SVG Export Plug-In . SVG Version: 6.00 Build 0)  -->
<svg version="1.1" id="Layer_1" xmlns="http://www.w3.org/2000/svg" xmlns:xlink="http://www.w3.org/1999/xlink" x="0px" y="0px"
	 viewBox="0 0 103.4 79.9" style="enable-background:new 0 0 103.4 79.9;" xml:space="preserve">
<g>
	<path d="M9.5,20.4h84.5c3.3,0,6-2.7,6-6s-2.7-6-6-6H9.5c-3.3,0-6,2.7-6,6S6.2,20.4,9.5,20.4z"/>
	<path d="M93.9,34H9.5c-3.3,0-6,2.7-6,6s2.7,6,6,6h84.5c3.3,0,6-2.7,6-6S97.2,34,93.9,34z"/>
	<path d="M93.9,59.5H9.5c-3.3,0-6,2.7-6,6c0,3.3,2.7,6,6,6h84.5c3.3,0,6-2.7,6-6C99.9,62.2,97.2,59.5,93.9,59.5z"/>
</g>
</svg>
