<?xml version="1.0" encoding="utf-8"?>
<!-- Generator: Adobe Illustrator 23.0.3, SVG Export Plug-In . SVG Version: 6.00 Build 0)  -->
<svg version="1.1" id="Layer_1" xmlns="http://www.w3.org/2000/svg" xmlns:xlink="http://www.w3.org/1999/xlink" x="0px" y="0px"
	 viewBox="0 0 103.4 79.9" style="enable-background:new 0 0 103.4 79.9;" xml:space="preserve">
<g>
	<path d="M98.6,21.5c-1.6-0.3-3.3-0.6-5-0.9c0-0.3,0-0.6,0-0.8c0-3.4-0.1-6.8,0-10.2c0.1-2.1-1.5-3.3-3.3-3.3c-9.4,0-18.9,0-28.3,0
		c-18.9,0-37.7,0-56.6,0c-2,0-3.2,1.2-3.2,3.2c0,3.1,0,6.1,0,9.2c0,12.5,0,24.9,0,37.4c0,1.9,1.2,3.1,3.1,3.1c1.6,0,3.2,0,4.9,0.3
		c9,1.6,17.9,3.2,26.9,4.8c9.1,1.6,18.3,3.3,27.4,4.9c8.3,1.5,16.5,2.9,24.8,4.4c1.9,0.3,3.3-0.6,3.7-2.5c1.5-8.4,3-16.8,4.5-25.3
		c1.2-6.9,2.5-13.8,3.7-20.6C101.5,23.2,100.5,21.8,98.6,21.5z M7.7,53.7c0-13.9,0-27.9,0-41.9c26.8,0,53.6,0,80.4,0
		c0,14,0,27.9,0,41.9C61.3,53.7,34.5,53.7,7.7,53.7z M88,67.8c-16-2.8-32-5.7-47.9-8.5c0,0,0-0.1,0-0.1c16.5,0,32.9,0,49.4,0
		C89,62.1,88.5,64.9,88,67.8z M93.7,35.7C93.7,35.7,93.6,35.7,93.7,35.7c-0.1-3.1-0.1-6.3-0.1-9.5c0.6,0.1,1.1,0.2,1.7,0.3
		C94.8,29.6,94.2,32.6,93.7,35.7z"/>
	<path d="M47.2,14.9c-9.4,0.4-17.5,8.3-17.1,18.6c0.4,9.6,8.4,17.2,18,17.1c10.1-0.1,18-8.2,17.8-18.1C65.6,22.2,57,14.5,47.2,14.9z
		 M54.6,36.6c-0.1,0.9-0.4,1.6-0.8,2.4c-0.7,1-1.6,1.6-2.7,2.1c-0.3,0.1-0.6,0.2-0.9,0.3c-0.2,0.1-0.3,0.2-0.3,0.4v2.4
		c0,0.1-0.1,0.2-0.2,0.2h-3.6c-0.1,0-0.2-0.1-0.2-0.2v-2c0-0.2-0.2-0.4-0.4-0.4c-0.2,0-0.4-0.1-0.6-0.1c-1.3-0.2-2.5-0.6-3.6-1.2
		c-0.1,0-0.1-0.1-0.1-0.2c0.3-1.1,0.6-2.2,0.8-3.3c0.1-0.4,0.2-0.7,0.3-1.1c0.3,0.1,0.5,0.3,0.7,0.4c1.4,0.7,2.9,1.2,4.5,1.1
		c0.4,0,0.8-0.1,1.2-0.3c0.4-0.3,0.5-0.8,0.1-1.1c-0.2-0.2-0.4-0.3-0.5-0.4c-0.6-0.3-1.2-0.5-1.8-0.8c-1-0.4-2-0.8-2.9-1.4
		c-0.7-0.5-1.3-1.1-1.7-1.9c-0.4-0.9-0.5-1.8-0.4-2.8c0.1-1.1,0.6-2.1,1.4-2.9c0.8-0.8,1.8-1.4,3-1.7c0.1,0,0.1-0.1,0.1-0.1l0-2.4
		c0-0.1,0.1-0.2,0.2-0.2h3.6c0.1,0,0.2,0.1,0.2,0.2c0,0.7,0,1.4,0,2.1v0c0,0,0,0.1,0.1,0.1c0.3,0,0.5,0.1,0.8,0.1
		c1.1,0.2,2.1,0.5,3,1c0.1,0,0.1,0.1,0.1,0.2c-0.3,1.1-0.6,2.2-0.9,3.2c-0.1,0.3-0.2,0.7-0.3,1c-0.3-0.2-0.7-0.3-1-0.5
		c-1.2-0.6-2.4-0.8-3.8-0.7c-0.3,0-0.5,0.1-0.8,0.2c-0.3,0.2-0.5,0.6-0.1,0.9c0.2,0.1,0.4,0.3,0.5,0.4c0.6,0.4,1.3,0.6,2,0.9
		c1,0.4,1.9,0.8,2.8,1.4c0.8,0.6,1.4,1.3,1.8,2.3C54.6,34.8,54.7,35.7,54.6,36.6z"/>
</g>
</svg>
