<?xml version="1.0" encoding="utf-8"?>
<!-- Generator: Adobe Illustrator 23.0.3, SVG Export Plug-In . SVG Version: 6.00 Build 0)  -->
<svg version="1.1" id="Layer_1" xmlns="http://www.w3.org/2000/svg" xmlns:xlink="http://www.w3.org/1999/xlink" x="0px" y="0px"
	 viewBox="0 0 125.3 96.8" style="enable-background:new 0 0 125.3 96.8;" xml:space="preserve">
<g>
	<path d="M33.8,63.4c6.7,4,13.3,7.9,20,11.7c1.6,0.9,3,1.8,4.6,2.8c0.8,0.5,1.5,0.1,1.5-0.8c0-0.1,0-0.4,0-0.5c0-4,0-7.8,0-11.7
		s0-8,0-12c0-1.3-0.5-2.2-1.7-2.8c-8.2-4-16.4-7.8-24.5-11.7c-1.2-0.5-1.7-0.3-1.7,1.1c0,7,0,14,0,21C32.1,61.7,32.6,62.6,33.8,63.4
		z"/>
	<path d="M102.6,63.1c-1.8-0.8-3.8,0-4.5,1.8c-2,4.5-4.9,8.5-8.4,12c-9.6,8.9-20.9,12.6-33.8,10.4c-12.6-2.1-21.8-8.9-28.1-19.8
		c-0.5-0.8-0.8-1.5-1.2-2.4c0.2-0.1,0.5-0.2,0.7-0.4c1.3-0.6,2.6-1.2,3.9-1.8c1.4-0.7,1.5-2,0.2-3c-4.6-3.3-9.3-6.6-13.9-9.8
		c-1.3-0.9-2.5-0.4-2.6,1.2c-0.2,1.8-0.4,3.6-0.5,5.3c-0.4,3.8-0.7,7.6-1.1,11.4c-0.1,0.7-0.1,1.4,0.6,1.9c0.6,0.5,1.3,0.2,2,0
		c0.4-0.1,0.6-0.2,0.9-0.5c1.2-0.6,2.4-1.1,3.7-1.7c0.1,0.2,0.2,0.4,0.2,0.5c2.5,5.2,5.7,9.8,10,13.6c11.6,10.7,25.4,14.6,40.9,11.7
		c9-1.7,16.7-5.9,23.3-12.2c4.2-4,7.4-8.7,9.7-13.9C105.1,65.9,104.3,63.8,102.6,63.1z"/>
	<path d="M92.7,38.7c-0.1-0.5-0.4-0.8-0.9-0.8c-0.3,0-0.5,0.1-0.7,0.3C83,42,74.8,46,66.8,49.9c-1.2,0.5-1.8,1.6-1.8,2.9
		c0,4,0,7.9,0,11.9s0,7.9,0,12c0,0.3,0,0.5,0.1,0.8c0.1,0.5,0.5,0.7,1.1,0.5c0.3,0,0.4-0.3,0.7-0.3c8.2-4.9,16.4-9.6,24.5-14.5
		c1.1-0.7,1.6-1.6,1.6-2.9c0-7,0-14,0-21C92.7,39.1,92.7,39,92.7,38.7z"/>
	<path d="M90.6,29.4c-1.3-0.5-2.6-1.1-4-1.6c-7.4-2.8-14.6-5.7-22-8.4c-1.6-0.5-3-0.5-4.5,0c-8.7,3.3-17.5,6.6-26.2,9.9
		c-1.2,0.4-1.8,1.3-1.8,2.5c0,1.3,0.7,2.2,1.8,2.8c8.6,4,17.1,7.9,25.7,11.9c0.9,0.4,1.8,0.5,2.8,0.8c0.9-0.3,2-0.4,2.9-0.8
		c8.4-3.8,17-7.8,25.5-11.6c1.2-0.5,2-1.3,2-2.8C92.7,30.7,92,29.9,90.6,29.4z M79.6,34.6c-5.3,2.4-10.7,4.9-16,7.3
		c-0.8,0.4-1.5,0.4-2.2,0c-6.9-3.2-13.6-6.3-20.4-9.5c-0.3-0.1-0.5-0.3-0.8-0.4c0.3-0.1,0.4-0.3,0.5-0.3c6.9-2.6,13.8-5.3,20.7-7.8
		c0.8-0.3,1.5-0.3,2.2,0c7,2.6,13.8,5.4,20.8,8c0.1,0,0.3,0.1,0.4,0.3C83,33.1,81.3,33.8,79.6,34.6z"/>
	<path d="M109.9,28.7c-0.7,0.2-1.4,0.6-2.1,0.9c-0.8,0.4-1.8,0.8-2.7,1.2c-0.1-0.2-0.2-0.4-0.2-0.6c-2.4-5.6-5.7-10.6-10.1-14.7
		C83.2,4.5,69.3,0.2,53.5,3c-11.9,2.3-21.4,8.4-28.6,18.2c-1.9,2.5-3.4,5.2-4.7,8.2c-0.7,1.8,0.2,3.7,1.9,4.4
		c1.8,0.7,3.7-0.1,4.4-1.9c0.1-0.2,0.1-0.5,0.2-0.6c8-16,25-24.8,42.4-21.6c12.6,2.3,22,9.3,28.1,20.5c0.6,1.1,1.1,2.4,1.7,3.6
		c-0.5,0.2-0.8,0.5-1.3,0.6c-1.1,0.5-2.3,0.9-3.3,1.5c-1.5,0.7-1.7,2-0.2,3l0.1,0.1c3.7,2.6,7.4,5.2,11,7.8c0.9,0.7,1.9,1.3,2.8,2
		c1.2,0.7,2.1,0.4,2.5-1.1c0.1-0.6,0.1-1.2,0.2-1.9c0.2-2.8,0.6-5.8,0.8-8.7c0.2-2.3,0.5-4.5,0.6-6.9
		C112.2,28.8,111.3,28.1,109.9,28.7z"/>
</g>
</svg>
