<?xml version="1.0" encoding="utf-8"?>
<!-- Generator: Adobe Illustrator 23.0.3, SVG Export Plug-In . SVG Version: 6.00 Build 0)  -->
<svg version="1.1" id="Layer_1" xmlns="http://www.w3.org/2000/svg" xmlns:xlink="http://www.w3.org/1999/xlink" x="0px" y="0px"
	 viewBox="0 0 103.4 93" style="enable-background:new 0 0 103.4 93;" xml:space="preserve">
<g>
	<path d="M101.7,27.7c0,0.6,0,1.2,0,1.8c-0.3,0.9-0.6,1.8-1.2,2.5c-4,4.3-8.3,8.3-12.6,12.6c-1.2,1.2-2.8,1.5-4.3,1.2
		c-0.9-0.3-1.8-0.9-2.8-1.5c-0.9-0.6-1.5-1.5-2.5-2.5c0,0.6,0,1.2,0,1.5c0,14.2,0,28.4,0,42.5c0,3.7-2.8,5.5-5.5,5.5
		c-14.2,0-28.4,0-42.2,0c-0.6,0-0.9,0-1.5,0c-1.8-0.3-4-2.2-4-5.2c0-14.2,0-28.4,0-42.8c0-0.3,0-0.6,0-1.2c0,0-0.3,0-0.3-0.3
		c-0.9,0.9-1.5,1.8-2.5,2.8c-2.2,1.8-4.9,1.8-6.8,0c-4-4-8.3-8.3-12.3-12.3c-1.8-1.8-1.8-4.9,0-6.8c7.4-7.4,14.8-14.8,22.5-22.5
		c0.9-0.9,2.2-1.5,3.4-1.5c2.5,0,4.6,0,7.1,0c1.8,0,3.4,0.9,4.6,2.5c0.9,1.2,2.2,2.2,3.4,3.1c3.4,1.8,7.1,2.5,10.8,1.8
		c3.4-0.6,6.5-1.8,8.6-4.9c0.9-1.2,2.2-1.8,4-1.8c2.2,0,4.6,0,6.8,0c1.8,0,3.4,0.6,4.6,1.8c6.8,7.1,13.9,13.9,21,21
		C100.5,25.3,101.4,26.2,101.7,27.7z"/>
</g>
</svg>
