<?xml version="1.0" encoding="utf-8"?>
<!-- Generator: Adobe Illustrator 23.0.3, SVG Export Plug-In . SVG Version: 6.00 Build 0)  -->
<svg version="1.1" id="Layer_1" xmlns="http://www.w3.org/2000/svg" xmlns:xlink="http://www.w3.org/1999/xlink" x="0px" y="0px"
	 viewBox="0 0 102.6 102.3" style="enable-background:new 0 0 102.6 102.3;" xml:space="preserve">
<g>
	<path d="M78.2,53.3c-7.3,0-14.6,0-21.9,0c-2,0-2.8,1-2.8,3c0,7.2,0,14.4,0,21.6c0,2.1,0.8,2.9,3,2.9c3.6,0,7.1,0,10.7,0
		c3.6,0,7.2,0,10.9,0c2.1,0,2.9-0.8,2.9-2.9c0-7.2,0-14.4,0-21.6C80.9,54.2,80.2,53.4,78.2,53.3z M65.6,74.3
		c-2.6-2.6-5.3-5.4-8.1-8.2c0.8-0.8,1.8-1.8,2.9-2.9c1.7,1.8,3.3,3.4,4.9,5.1c2.8-2.8,5.5-5.6,8.2-8.3c1.2,1.2,2.3,2.2,3.2,3.1
		C73.1,66.8,69.3,70.6,65.6,74.3z"/>
	<path d="M82.7,1.6H20C9.9,1.6,1.7,9.7,1.7,19.8v62.7c0,10.1,8.2,18.3,18.3,18.3h62.7c10.1,0,18.3-8.2,18.3-18.3V19.8
		C100.9,9.7,92.7,1.6,82.7,1.6z M85.5,79.5c-0.7,3-2.6,4.9-5.5,5.8H56.3c-1.7,0-3.4-0.5-4.7-1.5c-1.1-0.8-1.9-2-2.3-3.5
		c-0.3-1.2-0.2-2.6-0.3-4c-9.2,0.2-17.3-2.6-23.7-9.3c-4.3-4.5-7-9.8-7.8-16C15.7,37.7,22,26,33.5,20.1c10.1-5.2,26.9-4.7,37.3,9.2
		c1.7-1.8,3.3-3.5,4.9-5.2c0.2,0.1,0.2,0.1,0.4,0.2v15.3H60.7c2.5-2.3,4.7-4.4,6.9-6.4C63,24.9,51,18.6,38.7,22.8
		c-12.3,4.1-19.5,17.1-16.3,29.8c3.2,13,15.5,20.2,26.8,18.9c0-0.9,0-1.9,0-2.8c0-4.3,0-8.5,0-12.8c0-3.8,3.1-6.9,6.9-6.9
		c7,0,14,0,21,0c3.6,0,5.4,0.5,6.8,2.5c1.1,1.5,1.6,3.3,1.6,5.1V79.5z"/>
</g>
</svg>
