<?xml version="1.0" encoding="utf-8"?>
<!-- Generator: Adobe Illustrator 23.0.3, SVG Export Plug-In . SVG Version: 6.00 Build 0)  -->
<svg version="1.1" id="Layer_1" xmlns="http://www.w3.org/2000/svg" xmlns:xlink="http://www.w3.org/1999/xlink" x="0px" y="0px"
	 viewBox="0 0 103.4 79.9" style="enable-background:new 0 0 103.4 79.9;" xml:space="preserve">
<g>
	<path d="M80.3,54.2c-5.7-0.1-10-3.2-11.1-8.8c-0.6-3.5-0.6-7.4,0-10.9c1.1-5.7,5.5-8.8,11.3-8.8c4.6,0,9.1,0,14.1,0
		c0-4.7,0.1-9,0-13.3c0-6.5-4.2-10.5-10.8-10.5c-23.4,0-46.8,0-70.2,0c-6.3,0-10.8,4-10.8,10.3c-0.1,18.5-0.2,37.1,0,55.6
		C2.9,74.1,7.3,78,13.4,78c23.7,0,47.4,0,71,0c5.1,0,9.2-2.8,9.8-7.8c0.6-5.2,0.1-10.5,0.1-16C89.7,54.2,85,54.3,80.3,54.2z"/>
	<path d="M100.7,40.2c0-3,0-6.1,0-9.1c0-2-0.8-2.8-2.8-2.8c-5.8,0.1-11.6-0.1-17.3,0.1c-4.5,0.1-8.3,3.3-9,7.8
		c-0.4,2.4-0.4,4.9-0.1,7.4c0.6,4.7,4.3,8,9,8.1c5.9,0.1,11.7,0,17.6,0.1c1.9,0,2.7-0.8,2.6-2.6C100.6,46.1,100.7,43.1,100.7,40.2z
		 M82,44.5c-2.5,0-4.6-1.9-4.7-4.3c-0.1-2.4,1.9-4.6,4.4-4.7c2.6-0.1,4.8,1.9,4.8,4.5C86.5,42.5,84.5,44.5,82,44.5z"/>
</g>
</svg>
